<svg xmlns="http://www.w3.org/2000/svg" viewBox="0 0 320 320">
  <!-- Malaysia IKO Goju-ryu Karate-do crest (vector redraw of the official logo) -->
  <defs>
    <path id="arcTop" d="M 50 108 A 118 118 0 0 1 270 108" fill="none"/>
    <path id="arcIko" d="M 92 122 A 84 84 0 0 1 228 122" fill="none"/>
  </defs>

  <!-- Arched MALAYSIA / IKO -->
  <text font-family="Georgia, 'Times New Roman', serif" font-weight="bold" font-style="italic" font-size="30" fill="#000" letter-spacing="2">
    <textPath href="#arcTop" startOffset="50%" text-anchor="middle">MALAYSIA</textPath>
  </text>
  <text font-family="Georgia, 'Times New Roman', serif" font-weight="bold" font-style="italic" font-size="26" fill="#000" letter-spacing="3">
    <textPath href="#arcIko" startOffset="50%" text-anchor="middle">IKO</textPath>
  </text>

  <!-- Fist (fingers curled toward viewer, thumb across, wrist below) -->
  <g stroke="#000" stroke-width="4" fill="#fff" stroke-linejoin="round" stroke-linecap="round">
    <!-- wrist -->
    <path d="M 138 216 L 134 252 Q 160 261 186 252 L 182 216 Z"/>
    <!-- middle band: curled finger segments -->
    <rect x="114" y="166" width="94" height="32" rx="7"/>
    <!-- four proximal finger segments with knuckle tops -->
    <path d="M 116 170 L 116 132 Q 116 117 127 117 Q 138 117 138 132 L 138 170"/>
    <path d="M 138 170 L 138 130 Q 138 114 149 114 Q 160 114 160 130 L 160 170"/>
    <path d="M 160 170 L 160 130 Q 160 114 171 114 Q 182 114 182 130 L 182 170"/>
    <path d="M 182 170 L 182 132 Q 182 117 193 117 Q 204 117 204 132 L 204 170"/>
    <!-- thumb crossing over the curled fingers -->
    <rect x="112" y="190" width="98" height="28" rx="14"/>
    <path d="M 134 192 L 134 216" fill="none" stroke-width="3"/>
  </g>

  <!-- 剛柔流 vertically at left of fist -->
  <text x="94" y="150" font-family="'MS Mincho', 'Yu Mincho', serif" font-size="21" fill="#000" text-anchor="middle">剛</text>
  <text x="94" y="174" font-family="'MS Mincho', 'Yu Mincho', serif" font-size="21" fill="#000" text-anchor="middle">柔</text>
  <text x="94" y="198" font-family="'MS Mincho', 'Yu Mincho', serif" font-size="21" fill="#000" text-anchor="middle">流</text>

  <!-- Banner with 空手道 -->
  <g stroke="#000" stroke-width="3" fill="#fff" stroke-linejoin="round">
    <path d="M 96 250 L 78 242 L 92 264 L 78 282 L 100 274 Z"/>
    <path d="M 224 250 L 242 242 L 228 264 L 242 282 L 220 274 Z"/>
    <path d="M 96 248 Q 160 236 224 248 L 224 272 Q 160 262 96 272 Z"/>
  </g>
  <text x="160" y="264" font-family="'MS Mincho', 'Yu Mincho', serif" font-size="22" font-weight="bold" fill="#000" text-anchor="middle">空手道</text>

  <!-- GOJU-RYU KARATE-DO -->
  <text x="160" y="306" font-family="Georgia, 'Times New Roman', serif" font-weight="bold" font-size="21" fill="#000" text-anchor="middle" letter-spacing="1">GOJU-RYU KARATE-DO</text>
</svg>
